<?xml version="1.0" encoding="UTF-8"?>
<svg width="80px" height="28px" viewBox="0 0 80 28" version="1.1" xmlns="http://www.w3.org/2000/svg" xmlns:xlink="http://www.w3.org/1999/xlink">
    <title>Logo</title>
    <g id="web" stroke="none" stroke-width="1" fill="none" fill-rule="evenodd">
        <g id="Frame-4-Copy-10" transform="translate(-16, -14.5)">
            <g id="Logo" transform="translate(16.1346, 14.9948)">
                <g id="corin" fill="#284A3C" fill-rule="nonzero">
                    <path d="M5.44225,16.2177813 C4.41970833,16.2177813 3.498,15.9685625 2.677125,15.470125 C1.85625,14.9716875 1.20484375,14.2953594 0.72290625,13.4411406 C0.24096875,12.5869219 0,11.6375417 0,10.593 C0,9.53379167 0.24096875,8.58074479 0.72290625,7.73385938 C1.20484375,6.88697396 1.85625,6.2143125 2.677125,5.715875 C3.498,5.2174375 4.41970833,4.96821875 5.44225,4.96821875 C6.27022917,4.96821875 7.05609896,5.12296354 7.79985937,5.43245313 C8.54361979,5.74194271 9.185,6.17867708 9.724,6.74265625 L8.4095,8.1235 C8.03160417,7.69816667 7.59114583,7.37263542 7.088125,7.14690625 C6.58510417,6.92117708 6.06386458,6.8083125 5.52440625,6.8083125 C4.87792708,6.8083125 4.29572917,6.97726563 3.7778125,7.31517188 C3.25989583,7.65307813 2.84756771,8.10665625 2.54082813,8.67590625 C2.23408854,9.24515625 2.08071875,9.8841875 2.08071875,10.593 C2.08071875,11.3018125 2.23408854,11.9408438 2.54082813,12.5100938 C2.84756771,13.0793438 3.25989583,13.5329219 3.7778125,13.8708281 C4.29572917,14.2087344 4.87792708,14.3776875 5.52440625,14.3776875 C6.06386458,14.3776875 6.58510417,14.2620729 7.088125,14.0308438 C7.59114583,13.7996146 8.03160417,13.4768333 8.4095,13.0625 L9.724,14.4433438 C9.185,15.0073229 8.54361979,15.4440573 7.79985937,15.7535469 C7.05609896,16.0630365 6.27022917,16.2177813 5.44225,16.2177813 Z" id="Path"></path>
                    <path d="M24.4156523,16.2177813 C23.4011315,16.2177813 22.4852669,15.9722292 21.6680586,15.481125 C20.8508503,14.9900208 20.2068346,14.3205104 19.7360117,13.4725938 C19.2651888,12.6246771 19.0297773,11.6651563 19.0297773,10.5940313 C19.0297773,9.52290625 19.2651888,8.56304167 19.7360117,7.7144375 C20.2068346,6.86583333 20.8510221,6.19597917 21.6685742,5.704875 C22.4861263,5.21377083 23.4021628,4.96821875 24.4166836,4.96821875 C25.4461003,4.96821875 26.3657461,5.21377083 27.1756211,5.704875 C27.9854961,6.19597917 28.6258451,6.86548958 29.096668,7.71340625 C29.5674909,8.56132292 29.8029023,9.52084375 29.8029023,10.5919688 C29.8029023,11.6630938 29.5674909,12.6229583 29.096668,13.4715625 C28.6258451,14.3201667 27.9853815,14.9900208 27.1752773,15.481125 C26.3651732,15.9722292 25.4452982,16.2177813 24.4156523,16.2177813 Z M24.4187461,14.4271875 C25.0670586,14.4271875 25.6410065,14.2609844 26.1405898,13.9285781 C26.6401732,13.5961719 27.034168,13.1380104 27.3225742,12.5540938 C27.6109805,11.9701771 27.7551836,11.31625 27.7551836,10.5923125 C27.7551836,9.854625 27.6109805,9.19748958 27.3225742,8.62090625 C27.034168,8.04432292 26.6401732,7.58988542 26.1405898,7.25759375 C25.6410065,6.92530208 25.0670586,6.75915625 24.4187461,6.75915625 C23.7706628,6.75915625 23.1959701,6.92530208 22.694668,7.25759375 C22.1933659,7.58988542 21.7985117,8.04432292 21.5101055,8.62090625 C21.2216992,9.19748958 21.0774961,9.854625 21.0774961,10.5923125 C21.0774961,11.31625 21.2216992,11.9701771 21.5101055,12.5540938 C21.7985117,13.1380104 22.1933659,13.5961719 22.694668,13.9285781 C23.1959701,14.2609844 23.7706628,14.4271875 24.4187461,14.4271875 Z" id="Shape"></path>
                    <path d="M40.4841953,16.031125 L40.4841953,5.14421875 L42.5700703,5.14421875 L42.5700703,7.43565625 C42.8702786,6.63746875 43.2789401,6.02484896 43.7960547,5.59779688 C44.3131693,5.17074479 44.9090599,4.95721875 45.5837266,4.95721875 C45.7886016,4.96088542 45.9717057,4.97463542 46.1330391,4.99846875 C46.2943724,5.02230208 46.4629245,5.07065625 46.6386953,5.14353125 L46.6386953,6.98946875 C46.4519245,6.91636458 46.2478516,6.85878646 46.0264766,6.81673438 C45.8051016,6.77468229 45.5902578,6.75365625 45.3819453,6.75365625 C44.7542578,6.75365625 44.1992734,6.92902604 43.7169922,7.27976563 C43.2347109,7.63050521 42.8524036,8.11822917 42.5700703,8.7429375 L42.5700703,16.031125 L40.4841953,16.031125 Z" id="Path"></path>
                    <path d="M56.6966836,16.031125 L56.6966836,5.14421875 L58.7829023,5.14421875 L58.7829023,16.031125 L56.6966836,16.031125 Z M57.7482148,2.70875 C57.3714648,2.70875 57.0487982,2.57417188 56.7802148,2.30501562 C56.5116315,2.03585938 56.3773398,1.71897917 56.3773398,1.354375 C56.3773398,0.9851875 56.5116315,0.667161458 56.7802148,0.400296875 C57.0487982,0.133432292 57.3723815,0 57.7509648,0 C58.129319,0 58.4519284,0.133432292 58.718793,0.400296875 C58.9856576,0.667161458 59.1190898,0.984270833 59.1190898,1.351625 C59.1190898,1.71897917 58.9854284,2.03700521 58.7181055,2.30570313 C58.4507826,2.57440104 58.1274857,2.70875 57.7482148,2.70875 Z" id="Shape"></path>
                    <path d="M69.9534375,16.031125 L69.9534375,5.14421875 L72.0393125,5.14421875 L72.0393125,6.90903125 C72.4570833,6.26003125 72.9564948,5.7743125 73.5375469,5.451875 C74.118599,5.1294375 74.7701771,4.96821875 75.4922813,4.96821875 C76.2588438,4.96821875 76.9300156,5.13321875 77.5057969,5.46321875 C78.0815781,5.79321875 78.5335521,6.25338542 78.8617188,6.84371875 C79.1898854,7.43405208 79.3539688,8.12166667 79.3539688,8.9065625 L79.3539688,16.031125 L77.2680938,16.031125 L77.2680938,9.5088125 C77.2680938,8.630875 77.0293594,7.93758854 76.5518906,7.42895313 C76.0744219,6.92031771 75.4333854,6.666 74.6287813,6.666 C74.0925313,6.666 73.6030885,6.79003646 73.1604531,7.03810938 C72.7178177,7.28618229 72.3441042,7.654625 72.0393125,8.1434375 L72.0393125,16.031125 L69.9534375,16.031125 Z" id="Path"></path>
                </g>
                <path d="M8.404125,23.531125 C10.0169191,25.1977917 12.1835857,26.031125 14.904125,26.031125 C17.6246643,26.031125 19.7913309,25.1977917 21.404125,23.531125 L21.404125,23.531125" id="Line-Copy" stroke="#284A3C" stroke-width="2.2" stroke-linecap="round"></path>
            </g>
        </g>
    </g>
</svg>
